<?xml version="1.0" encoding="iso-8859-1"?>
<!-- Generator: Adobe Illustrator 19.0.0, SVG Export Plug-In . SVG Version: 6.00 Build 0)  -->
<svg version="1.1" id="Capa_1" xmlns="http://www.w3.org/2000/svg" xmlns:xlink="http://www.w3.org/1999/xlink" x="0px" y="0px"
	 viewBox="0 0 512.002 512.002" style="enable-background:new 0 0 512.002 512.002;" xml:space="preserve">
<linearGradient id="SVGID_1_" gradientUnits="userSpaceOnUse" x1="0" y1="258.0014" x2="512.002" y2="258.0014" gradientTransform="matrix(1 0 0 -1 0 514.0024)">
	<stop  offset="0" style="stop-color:#80D8FF"/>
	<stop  offset="1" style="stop-color:#EA80FC"/>
</linearGradient>
<path style="fill:url(#SVGID_1_);" d="M362.002,76.029c-0.453,0-0.91,0.002-1.364,0.006c-23.838,0.212-47,6.168-67.688,16.904
	c9.236-21.725,21.911-41.966,37.56-59.713c7.305-8.285,6.51-20.922-1.775-28.227c-8.284-7.304-20.922-6.509-28.229,1.775
	c-26.094,29.593-45.236,65.038-55.742,103.036c-26.143-21.268-59.074-33.47-93.402-33.775C67.995,75.339,0.012,143.091,0,225.991
	c-0.002,20.423,4.195,42.673,13.97,63.06c4.004,8.348,72.423,151.299,76.464,159.74c26.016,55.286,93.531,79.691,149.39,51.279
	c10.131-5.151,22.225-5.15,32.354,0c55.864,28.415,123.372,4,149.387-51.272c83.342-174.122,71.726-149.857,78.002-162.95
	c0.18-0.374,0.347-0.754,0.503-1.138c7.92-18.594,11.934-38.348,11.932-58.721C511.988,143.058,444.216,76.029,362.002,76.029z
	 M463.271,269.027c-6.666,13.905-69.714,145.633-77.821,162.572c-0.021,0.043-0.041,0.086-0.061,0.128
	c-16.636,35.4-59.739,50.668-95.078,32.693c-21.479-10.926-47.135-10.929-68.623,0c-35.31,17.96-78.426,2.741-95.078-32.693
	c-0.02-0.042-0.04-0.085-0.061-0.128c-83.318-174.072-71.68-149.76-77.821-162.573c-5.793-13.606-8.73-28.083-8.729-43.03
	c0.008-60.789,50.055-110.478,111.005-109.965c33.87,0.302,65.891,16.402,86.426,43.252c6.634,14.009,26.107,15.39,34.87,3.065
	c20.396-28.689,53.553-46.004,88.694-46.317c60.713-0.579,110.997,49.004,111.005,109.964
	C472.002,240.945,469.065,255.42,463.271,269.027z"/>
<g>
</g>
<g>
</g>
<g>
</g>
<g>
</g>
<g>
</g>
<g>
</g>
<g>
</g>
<g>
</g>
<g>
</g>
<g>
</g>
<g>
</g>
<g>
</g>
<g>
</g>
<g>
</g>
<g>
</g>
</svg>
