<svg height="512pt" viewBox="0 0 512 512" width="512pt" xmlns="http://www.w3.org/2000/svg" xmlns:xlink="http://www.w3.org/1999/xlink"><linearGradient id="a" gradientTransform="matrix(1 0 0 -1 0 -16402)" gradientUnits="userSpaceOnUse" x1="0" x2="512" y1="-16658" y2="-16658"><stop offset="0" stop-color="#31d8ff"/><stop offset="1" stop-color="#ff80ff"/></linearGradient><path d="m512 256c0 141.386719-114.613281 256-256 256s-256-114.613281-256-256 114.613281-256 256-256 256 114.613281 256 256zm0 0" fill="url(#a)"/><path d="m421.289062 149.574219c-22.132812-21.933594-51.285156-33.972657-82.195312-33.972657-.351562 0-.707031 0-1.0625.003907-19.226562.171875-37.886719 5.132812-54.429688 14.058593 7.324219-17.761718 17.5625-34.300781 30.296876-48.742187 5.480468-6.214844 4.882812-15.695313-1.332032-21.171875-6.214844-5.480469-15.691406-4.882812-21.167968 1.328125-20.621094 23.386719-35.679688 51.441406-43.824219 81.511719-20.503907-16.984375-46.496094-26.742188-73.605469-26.984375-31.339844-.3125-60.871094 11.785156-83.257812 33.972656-22.382813 22.175781-34.707032 51.617187-34.710938 82.90625-.003906 15.875 3.125 31.269531 9.296875 45.761719.117187.292968.246094.582031.382813.867187l1.269531 2.648438c2.230469 4.648437 2.230469 4.648437 41.472656 86.636719l18.414063 38.472656c14.050781 29.847656 44.433593 49.128906 77.425781 49.128906 13.441406 0 26.84375-3.203125 38.75-9.257812 8.132812-4.136719 17.84375-4.136719 25.976562-.003907 11.90625 6.058594 25.308594 9.261719 38.75 9.261719 32.992188 0 63.375-19.28125 77.429688-49.128906l57.53125-120.199219 3.621093-7.554687c.136719-.285157.261719-.570313.378907-.863282 6.175781-14.492187 9.304687-29.894531 9.300781-45.769531-.003906-31.289063-12.328125-60.730469-34.710938-82.910156zm-2.191406 116.929687-61.011718 127.457032c-.015626.03125-.027344.0625-.042969.097656-9.121094 19.402344-28.867188 31.941406-50.304688 31.941406-8.863281 0-17.324219-2.019531-25.148437-6-8.324219-4.234375-17.457032-6.351562-26.589844-6.351562s-18.265625 2.117187-26.589844 6.355468c-7.824218 3.976563-16.285156 5.996094-25.148437 5.996094-21.4375 0-41.183594-12.539062-50.304688-31.941406-.015625-.035156-.027343-.066406-.042969-.097656l-18.4375-38.515626c-39.246093-82.007812-39.246093-82.007812-41.476562-86.65625l-1.097656-2.285156c-4.582032-10.757812-6.90625-22.199218-6.902344-34.015625.003906-23.222656 9.175781-45.101562 25.824219-61.601562 16.476562-16.324219 38.140625-25.285157 61.089843-25.285157h.785157c26.789062.242188 52.109375 12.984376 68.332031 34.238282 1.878906 4.015625 5.503906 7.167968 10.15625 8.257812 1.148438.269532 2.300781.398438 3.433594.398438.03125 0 .066406-.003906.097656-.003906.09375 0 .1875.015624.28125.015624 4.855469 0 9.410156-2.351562 12.226562-6.308593 16.113282-22.667969 42.308594-36.347657 70.074219-36.597657 23.21875-.183593 45.210938 8.773438 61.875 25.285157 16.648438 16.5 25.820313 38.378906 25.824219 61.601562.003906 11.816407-2.320312 23.257813-6.902344 34.015625zm0 0" fill="#fff"/></svg>